{"glyphs":{":":{"x_min":0,"x_max":312,"ha":312,"o":"m 81 376 q 81 407 103 428 q 125 450 156 450 q 188 450 209 429 q 230 408 230 376 q 230 345 209 323 q 188 302 156 302 q 125 302 103 323 q 81 345 81 376 z m 81 57 q 81 88 103 109 q 125 131 156 131 q 188 131 209 110 q 230 88 230 57 q 230 25 209 4 q 188 -17 156 -17 q 125 -17 103 4 q 81 26 81 57 z"},"$":{"x_min":0,"x_max":625,"ha":625,"o":"m 270 -105 l 270 0 q 165 7 107 48 q 50 89 50 158 q 50 193 72 215 q 93 237 128 237 q 158 237 178 219 q 198 201 198 174 q 198 146 181 131 q 165 115 135 115 l 128 115 q 153 90 188 77 q 223 65 270 64 l 270 250 q 159 276 111 318 q 62 360 62 428 q 62 501 117 550 q 173 598 270 609 l 270 685 l 338 685 l 338 609 q 426 605 484 563 q 541 522 541 467 q 541 434 521 412 q 500 391 469 391 q 439 391 419 408 q 399 425 399 450 q 399 474 416 489 q 434 503 464 505 q 440 526 409 537 q 378 547 338 547 l 338 367 q 459 346 514 302 q 570 257 570 183 q 570 102 510 54 q 449 6 338 -1 l 338 -105 z m 270 545 q 222 539 198 518 q 173 497 173 461 q 173 429 196 409 q 220 390 270 381 z m 338 66 q 397 68 428 90 q 458 111 458 151 q 458 186 430 206 q 403 226 338 237 z"},"?":{"x_min":0,"x_max":501,"ha":501,"o":"m 192 190 q 192 192 191 195 q 190 216 190 225 q 190 264 203 295 q 215 326 247 362 q 256 373 274 392 q 336 458 336 506 q 336 556 301 586 q 267 617 211 617 q 157 617 123 585 q 88 553 87 501 q 102 513 115 519 q 129 525 143 525 q 170 525 189 506 q 207 487 207 459 q 207 427 183 404 q 158 382 123 382 q 80 382 50 417 q 21 452 21 505 q 21 585 84 638 q 147 691 244 691 q 348 691 413 640 q 479 589 479 512 q 479 463 454 426 q 430 389 356 336 q 292 290 274 261 q 256 233 256 195 l 256 190 z m 147 57 q 147 88 169 109 q 190 131 222 131 q 253 131 275 110 q 296 88 296 57 q 296 25 275 4 q 253 -17 222 -17 q 190 -17 169 4 q 147 26 147 57 z"},"<":{"x_min":0,"x_max":833,"ha":833,"o":"m 704 484 l 248 298 l 704 112 l 704 23 l 129 259 l 129 337 l 704 574 z"},"'":{"x_min":0,"x_max":175,"ha":175,"o":"m 78 418 l 42 642 q 42 646 41 650 q 41 654 41 661 q 41 687 53 700 q 65 714 87 714 q 110 714 122 700 q 134 687 134 661 q 134 653 134 649 q 133 645 133 642 l 97 418 z"},"=":{"x_min":0,"x_max":833,"ha":833,"o":"m 709 238 l 709 157 l 124 157 l 124 238 z m 709 440 l 709 358 l 124 358 l 124 440 z"},"a":{"x_min":0,"x_max":569,"ha":569,"o":"m 330 247 q 310 237 273 222 q 162 174 162 123 q 162 96 178 81 q 194 66 224 66 q 273 66 302 99 q 330 132 330 190 z m 332 57 q 302 19 263 0 q 223 -18 170 -18 q 107 -18 67 18 q 27 54 27 111 q 27 165 61 199 q 95 232 178 258 q 198 264 242 275 q 286 286 300 295 q 318 307 325 322 q 333 336 333 359 q 333 396 306 415 q 280 435 230 435 q 198 435 175 428 q 152 421 135 406 l 138 406 q 167 406 184 391 q 201 377 201 351 q 201 322 182 305 q 163 287 131 287 q 96 287 73 309 q 51 331 51 365 q 51 421 104 456 q 157 490 245 490 q 295 490 334 481 q 373 473 398 456 q 427 437 438 408 q 450 378 450 310 l 450 100 q 450 83 456 74 q 461 66 473 66 q 491 66 498 85 q 504 104 504 176 l 565 176 l 565 155 q 565 63 536 22 q 507 -18 441 -18 q 396 -18 370 0 q 343 19 332 57 z"},"L":{"x_min":0,"x_max":694,"ha":694,"o":"m 23 671 l 383 671 l 383 595 l 336 595 q 291 595 280 584 q 269 574 269 533 l 269 76 l 394 76 q 461 76 494 88 q 527 99 542 126 q 556 152 563 189 q 570 226 570 278 l 570 290 l 647 290 l 647 0 l 23 0 l 23 76 l 62 76 q 106 76 117 87 q 128 97 128 138 l 128 533 q 128 574 117 585 q 106 595 62 595 l 23 595 z"},"3":{"x_min":0,"x_max":625,"ha":625,"o":"m 134 100 q 160 76 193 64 q 226 52 267 52 q 334 52 373 84 q 412 116 412 171 q 412 230 376 259 q 339 288 265 288 l 246 288 l 246 361 l 256 361 q 332 361 367 385 q 403 409 403 459 q 403 505 370 534 q 336 562 281 562 q 249 562 221 553 q 194 544 169 525 q 198 522 214 505 q 230 487 230 459 q 230 428 208 408 q 186 388 151 388 q 115 388 92 411 q 69 434 69 470 q 69 536 137 581 q 206 626 311 626 q 417 626 482 583 q 547 540 547 471 q 547 414 510 378 q 473 343 397 328 q 479 314 521 273 q 564 233 564 170 q 564 85 489 34 q 415 -17 288 -17 q 182 -17 115 31 q 47 79 47 152 q 47 195 73 222 q 98 249 139 249 q 174 249 195 228 q 217 207 217 173 q 217 140 196 120 q 175 100 141 100 z"},";":{"x_min":0,"x_max":312,"ha":312,"o":"m 78 -144 l 78 -100 q 124 -88 147 -60 q 171 -31 172 14 q 159 5 149 2 q 139 -2 129 -2 q 103 -2 86 16 q 69 33 69 61 q 69 93 90 112 q 111 131 145 131 q 187 131 213 102 q 239 73 239 26 q 239 -41 196 -87 q 153 -132 78 -144 z m 81 376 q 81 407 103 428 q 125 450 156 450 q 188 450 209 429 q 230 408 230 376 q 230 345 209 323 q 188 302 156 302 q 125 302 103 323 q 81 345 81 376 z"},"J":{"x_min":0,"x_max":578,"ha":578,"o":"m 315 533 q 315 574 304 585 q 293 595 249 595 l 202 595 l 202 671 l 555 671 l 555 595 l 525 595 q 480 595 470 585 q 459 574 459 533 l 459 214 q 459 142 447 104 q 436 67 408 39 q 381 11 336 -5 q 291 -20 237 -20 q 143 -20 83 27 q 24 74 24 147 q 24 194 49 220 q 74 247 118 247 q 153 247 176 225 q 198 203 198 169 q 198 136 181 115 q 165 95 131 87 q 150 71 169 64 q 188 57 210 57 q 268 57 292 87 q 315 116 315 195 z"},"V":{"x_min":0,"x_max":713,"ha":713,"o":"m 282 0 l 94 531 q 81 568 64 582 q 47 595 17 595 l -12 595 l -12 671 l 339 671 l 339 595 l 287 595 q 259 595 246 588 q 234 581 234 566 q 234 557 237 544 q 240 532 246 515 l 370 167 l 503 523 q 508 535 510 547 q 513 559 513 567 q 513 583 501 589 q 488 595 450 595 l 406 595 l 406 671 l 725 671 l 725 595 l 705 595 q 669 595 652 583 q 634 570 619 529 l 421 0 z"},"\"":{"x_min":0,"x_max":339,"ha":339,"o":"m 242 418 l 206 642 q 206 646 205 650 q 205 654 205 661 q 205 686 218 700 q 230 714 252 714 q 274 714 286 700 q 299 687 299 662 q 299 656 297 645 q 297 643 297 642 l 261 418 z m 78 418 l 42 642 q 42 646 41 650 q 41 654 41 661 q 41 687 53 700 q 65 714 87 714 q 110 714 122 700 q 134 687 134 661 q 134 653 134 649 q 133 645 133 642 l 97 418 z"},"7":{"x_min":0,"x_max":625,"ha":625,"o":"m 248 -4 q 248 3 248 17 q 247 31 247 37 q 247 107 256 157 q 264 207 283 245 q 314 310 423 428 q 463 472 484 496 q 461 485 438 480 q 416 475 395 475 q 365 475 317 485 q 269 495 251 495 q 199 495 177 459 q 154 423 154 339 l 154 333 l 85 333 l 85 611 l 158 611 l 158 540 q 187 581 218 598 q 250 616 293 616 q 334 616 399 592 q 464 567 485 567 q 505 567 520 577 q 534 587 542 609 l 606 609 q 602 544 519 424 q 480 368 462 337 q 421 268 403 198 q 384 128 384 43 q 384 24 384 14 q 384 5 385 -4 z"},"S":{"x_min":0,"x_max":644,"ha":644,"o":"m 44 0 l 44 277 l 122 277 q 138 177 196 124 q 254 71 347 71 q 414 71 449 93 q 485 116 485 158 q 485 196 458 220 q 431 244 371 258 l 262 283 q 145 311 94 357 q 42 404 42 482 q 42 577 108 634 q 174 691 284 691 q 339 691 386 674 q 434 657 479 622 l 514 671 l 574 671 l 574 417 l 498 417 q 481 508 426 559 q 371 609 288 609 q 228 609 194 586 q 161 563 161 523 q 161 489 185 468 q 208 448 260 436 l 395 405 q 502 380 556 328 q 609 276 609 196 q 609 101 539 40 q 469 -20 358 -20 q 302 -20 247 0 q 191 21 135 63 l 113 0 z"},"}":{"x_min":0,"x_max":500,"ha":500,"o":"m 281 571 l 281 473 q 281 394 309 364 q 336 334 414 327 l 414 294 q 337 288 309 258 q 281 228 281 148 l 281 50 q 281 -46 240 -83 q 199 -119 90 -119 l 85 -119 l 85 -91 q 148 -90 171 -65 q 194 -40 194 37 l 194 104 q 194 215 221 255 q 249 294 323 310 q 250 326 222 365 q 194 405 194 516 l 194 583 q 194 660 171 686 q 147 711 85 712 l 85 740 l 90 740 q 199 740 240 704 q 281 667 281 571 z"},"Z":{"x_min":0,"x_max":659,"ha":659,"o":"m 42 0 l 42 81 l 443 595 l 329 595 q 253 595 221 583 q 189 572 171 543 q 156 518 148 481 q 141 445 140 390 l 63 390 l 63 671 l 609 671 l 609 585 l 212 76 l 319 76 q 397 76 437 89 q 477 102 494 131 q 510 159 519 200 q 528 242 532 304 l 609 304 l 609 0 z"},"x":{"x_min":0,"x_max":645,"ha":645,"o":"m 5 0 l 5 67 l 29 67 q 48 67 70 78 q 92 88 114 108 l 253 232 l 135 357 q 110 384 90 394 q 69 405 45 405 l 25 405 l 25 472 l 314 472 l 314 405 l 292 405 q 279 405 272 401 q 264 397 264 391 q 264 384 275 373 q 278 369 279 368 l 336 305 l 397 361 q 409 373 414 379 q 419 385 419 390 q 419 397 411 401 q 402 405 386 405 l 365 405 l 365 472 l 618 472 l 618 405 l 597 405 q 576 405 554 394 q 533 383 501 354 l 391 253 l 519 120 q 545 92 567 80 q 589 67 612 67 l 633 67 l 633 0 l 336 0 l 336 67 l 357 67 q 375 67 385 71 q 395 75 395 81 q 395 86 391 92 q 388 98 381 105 l 309 179 l 226 104 q 215 94 212 89 q 208 84 208 81 q 208 75 216 71 q 224 67 236 67 l 275 67 l 275 0 z"},")":{"x_min":0,"x_max":387,"ha":387,"o":"m 33 -131 q 122 -96 164 -2 q 207 92 207 251 q 207 405 164 499 q 121 593 33 628 l 33 691 q 185 652 266 539 q 347 425 347 251 q 347 73 267 -41 q 187 -154 33 -194 z"},"&":{"x_min":0,"x_max":845,"ha":845,"o":"m 326 455 q 369 476 390 501 q 412 527 412 556 q 412 582 396 598 q 379 614 352 614 q 324 614 306 596 q 289 578 289 549 q 289 528 299 504 q 308 479 326 455 z m 250 318 q 213 297 196 272 q 178 247 178 215 q 178 155 214 116 q 250 78 308 78 q 327 78 348 84 q 368 90 392 102 q 353 148 319 200 q 284 253 250 318 z m 727 231 l 804 231 l 804 212 q 804 100 755 40 q 706 -20 614 -20 q 576 -20 538 -6 q 499 8 457 37 q 408 8 361 -6 q 314 -20 266 -20 q 167 -20 102 39 q 36 98 36 184 q 36 254 78 307 q 119 359 209 402 q 195 433 189 461 q 182 490 182 519 q 182 593 230 642 q 279 691 353 691 q 422 691 461 656 q 501 622 501 562 q 501 508 469 462 q 438 417 372 377 q 401 327 433 280 q 465 233 500 190 q 536 225 556 260 q 576 294 576 319 q 576 332 563 337 q 549 342 515 342 l 485 342 l 485 418 l 804 418 l 804 342 l 769 342 q 731 342 710 331 q 689 320 672 291 q 669 287 663 274 q 617 190 557 121 q 575 103 593 94 q 612 86 632 86 q 678 86 700 121 q 723 155 727 231 z"},"_":{"x_min":0,"x_max":500,"ha":500,"o":"m 500 -152 l 500 -236 l 0 -236 l 0 -152 z"},"v":{"x_min":0,"x_max":553,"ha":553,"o":"m 212 0 l 90 354 q 80 381 67 393 q 55 405 36 405 l 7 405 l 7 472 l 267 472 l 267 405 l 251 405 q 231 405 222 399 q 212 393 212 380 q 212 373 214 362 q 216 352 221 337 l 295 119 l 375 346 q 378 355 380 363 q 382 371 382 378 q 382 392 371 398 q 360 405 337 405 l 313 405 l 313 472 l 546 472 l 546 405 l 521 405 q 500 405 486 390 q 471 375 460 344 l 339 0 z"},"O":{"x_min":0,"x_max":811,"ha":811,"o":"m 194 336 q 194 206 250 134 q 306 61 406 61 q 505 61 561 133 q 617 206 617 336 q 617 466 562 538 q 506 610 406 610 q 306 610 250 538 q 194 466 194 336 z m 36 336 q 36 495 138 593 q 240 690 406 690 q 572 690 674 593 q 775 495 775 336 q 775 176 673 79 q 572 -19 406 -19 q 240 -19 138 79 q 36 177 36 336 z"},"(":{"x_min":0,"x_max":387,"ha":387,"o":"m 353 -131 l 353 -194 q 199 -154 119 -41 q 39 73 39 251 q 39 425 120 539 q 201 652 353 691 l 353 628 q 266 593 223 499 q 180 406 180 251 q 180 91 222 -2 q 265 -96 353 -131 z"},"C":{"x_min":0,"x_max":708,"ha":708,"o":"m 573 260 l 659 260 q 649 126 577 53 q 504 -20 381 -20 q 307 -20 248 3 q 188 26 141 73 q 89 125 63 192 q 36 259 36 336 q 36 414 62 478 q 88 543 140 595 q 188 643 246 667 q 305 691 372 691 q 426 691 473 674 q 521 657 567 622 l 587 682 l 659 682 l 659 407 l 582 407 q 570 503 520 556 q 470 609 391 609 q 299 609 246 535 q 194 461 194 331 q 194 207 246 139 q 298 72 393 72 q 467 72 513 120 q 559 168 573 260 z"},"W":{"x_min":0,"x_max":980,"ha":980,"o":"m 245 0 l 103 505 q 87 562 71 579 q 55 595 25 595 l 9 595 l 9 671 l 295 671 l 295 595 l 263 595 q 242 595 232 588 q 222 580 222 564 q 222 558 223 553 q 224 548 225 543 l 330 164 l 450 510 q 441 556 424 575 q 406 595 374 595 l 349 595 l 349 671 l 643 671 l 643 595 l 606 595 q 580 595 570 589 q 559 583 559 568 q 559 561 563 545 q 564 542 565 540 l 678 174 l 778 515 q 782 529 785 542 q 787 555 787 565 q 787 581 773 588 q 760 595 731 595 l 698 595 l 698 671 l 973 671 l 973 595 l 951 595 q 926 595 910 579 q 894 563 883 527 l 730 0 l 598 0 l 493 359 l 372 0 z"},"A":{"x_min":0,"x_max":720,"ha":720,"o":"m 423 293 l 336 525 l 257 293 z m -14 0 l -14 76 l 7 76 q 45 76 64 90 q 83 103 96 141 l 283 671 l 424 671 l 624 141 q 641 95 656 85 q 670 76 705 76 l 725 76 l 725 0 l 378 0 l 378 76 l 432 76 q 465 76 476 82 q 488 87 488 102 q 488 107 486 114 q 484 121 479 135 l 450 214 l 229 214 l 200 129 q 199 126 197 119 q 192 105 192 99 q 192 86 201 81 q 211 76 246 76 l 298 76 l 298 0 z"},"f":{"x_min":0,"x_max":374,"ha":374,"o":"m 113 401 l 23 401 l 23 471 l 113 471 l 113 486 q 113 587 156 638 q 199 689 284 689 q 350 689 390 660 q 430 631 430 584 q 430 550 412 530 q 393 510 362 510 q 334 510 317 526 q 299 542 299 568 q 299 589 310 603 q 322 618 342 623 q 333 630 323 634 q 312 637 300 637 q 264 637 249 615 q 234 593 234 538 l 234 471 l 336 471 l 336 401 l 234 401 l 234 127 q 234 88 245 78 q 257 67 291 67 l 336 67 l 336 0 l 23 0 l 23 67 l 52 67 q 89 67 101 78 q 113 88 113 127 z"},"Q":{"x_min":0,"x_max":836,"ha":836,"o":"m 592 171 q 608 203 617 242 q 625 282 625 328 q 625 461 568 535 q 512 610 411 610 q 308 610 250 538 q 192 465 192 336 q 192 259 211 205 q 231 150 268 123 q 268 127 267 132 q 267 137 267 147 q 267 207 301 240 q 334 273 394 273 q 444 273 492 248 q 540 224 592 171 z m 500 87 q 475 136 445 160 q 416 184 383 184 q 356 184 340 167 q 323 150 323 123 q 323 93 344 75 q 366 56 401 56 q 429 56 455 64 q 480 72 500 87 z m 668 80 q 684 60 698 50 q 713 40 728 40 q 750 40 759 59 q 769 78 771 131 l 836 131 l 836 116 q 836 25 801 -22 q 766 -69 697 -69 q 662 -69 630 -52 q 598 -34 558 7 q 521 -6 483 -12 q 445 -19 405 -19 q 239 -19 138 79 q 36 177 36 336 q 36 495 138 593 q 240 690 406 690 q 571 690 673 593 q 775 495 775 337 q 775 259 748 193 q 720 127 668 80 z"},"w":{"x_min":0,"x_max":827,"ha":827,"o":"m 205 0 l 92 347 q 80 383 68 394 q 56 405 33 405 l 12 405 l 12 472 l 260 472 l 260 405 l 236 405 q 218 405 211 399 q 203 394 203 381 q 203 375 205 366 q 208 356 212 341 l 280 109 l 364 344 q 367 353 369 361 q 371 370 371 376 q 371 392 361 398 q 352 405 326 405 l 307 405 l 307 472 l 549 472 l 549 405 l 519 405 q 503 405 495 399 q 488 394 488 382 q 488 375 490 367 q 491 359 494 351 l 574 104 l 648 331 q 653 345 656 358 q 658 371 658 380 q 658 391 649 398 q 640 405 626 405 l 601 405 l 601 472 l 809 472 l 809 405 l 787 405 q 768 405 756 391 q 743 376 731 340 l 618 0 l 500 0 l 415 264 l 325 0 z"},"-":{"x_min":0,"x_max":345,"ha":345,"o":"m 37 186 l 37 292 l 308 292 l 308 186 z"},"E":{"x_min":0,"x_max":755,"ha":755,"o":"m 23 0 l 23 76 l 62 76 q 106 76 117 87 q 128 97 128 138 l 128 533 q 128 574 117 585 q 106 595 62 595 l 23 595 l 23 671 l 683 671 l 683 404 l 607 404 q 604 519 570 557 q 535 595 430 595 l 269 595 l 269 389 l 307 389 q 370 389 390 411 q 409 433 414 511 l 490 511 l 490 175 l 414 175 q 410 262 390 287 q 371 312 308 312 l 269 312 l 269 76 l 445 76 q 533 76 565 117 q 598 158 607 284 l 683 284 l 683 0 z"},"s":{"x_min":0,"x_max":497,"ha":497,"o":"m 31 -6 l 31 187 l 104 187 q 118 123 159 88 q 201 54 263 54 q 301 54 324 71 q 347 88 347 116 q 347 139 329 153 q 310 167 263 178 l 189 196 q 111 215 74 251 q 36 287 36 342 q 36 408 86 449 q 137 490 219 490 q 258 490 293 478 q 329 466 362 442 l 384 479 l 441 479 l 441 304 l 373 304 q 358 358 319 389 q 281 419 227 419 q 191 419 171 404 q 151 389 151 363 q 151 344 165 331 q 178 319 207 312 l 298 291 q 386 270 426 233 q 466 196 466 136 q 466 65 415 24 q 364 -17 275 -17 q 230 -17 193 -5 q 155 8 115 36 l 97 -6 z"},">":{"x_min":0,"x_max":833,"ha":833,"o":"m 704 337 l 704 259 l 129 23 l 129 112 l 585 298 l 129 484 l 129 574 z"},"l":{"x_min":0,"x_max":340,"ha":340,"o":"m 109 544 q 109 582 97 593 q 86 604 51 604 l 21 604 l 21 671 l 231 671 l 231 127 q 231 89 243 78 q 254 67 289 67 l 319 67 l 319 0 l 21 0 l 21 67 l 51 67 q 86 67 97 78 q 109 89 109 127 z"},"8":{"x_min":0,"x_max":625,"ha":625,"o":"m 376 369 q 411 386 428 411 q 446 436 446 469 q 446 510 410 533 q 375 557 314 557 q 254 557 220 536 q 186 515 186 478 q 186 451 206 430 q 225 410 262 400 z m 240 263 q 197 247 174 220 q 152 193 152 158 q 152 113 192 88 q 233 62 305 62 q 380 62 417 82 q 453 102 453 143 q 453 170 435 188 q 417 207 375 220 z m 166 293 q 114 325 89 363 q 64 401 64 447 q 64 526 132 576 q 200 626 309 626 q 419 626 487 584 q 554 542 554 474 q 554 431 528 398 q 501 366 446 342 q 513 314 545 273 q 578 232 578 176 q 578 86 507 35 q 435 -17 310 -17 q 187 -17 113 29 q 39 75 39 151 q 39 200 71 235 q 102 271 166 293 z"},"\\":{"x_min":0,"x_max":296,"ha":296,"o":"m 222 -93 l -24 691 l 50 691 l 296 -93 z"},"e":{"x_min":0,"x_max":533,"ha":533,"o":"m 369 297 q 364 362 342 393 q 320 423 277 423 q 233 423 205 391 q 178 359 169 297 z m 414 169 l 498 169 q 487 82 428 32 q 370 -18 278 -18 q 164 -18 96 51 q 28 120 28 236 q 28 350 96 420 q 165 490 278 490 q 387 490 444 423 q 501 355 501 226 l 164 226 q 167 146 198 104 q 229 62 285 62 q 343 62 372 87 q 402 111 414 169 z"},"b":{"x_min":0,"x_max":597,"ha":597,"o":"m 427 235 q 427 320 399 361 q 371 403 313 403 q 260 403 229 358 q 199 314 199 235 q 199 156 230 111 q 260 66 313 66 q 371 66 399 108 q 427 150 427 235 z m 184 61 l 144 -5 l 78 -5 l 78 544 q 78 583 67 593 q 56 604 21 604 l 0 604 l 0 671 l 199 671 l 199 398 q 227 446 266 468 q 306 490 362 490 q 455 490 509 423 q 563 355 563 238 q 563 121 508 52 q 453 -17 359 -17 q 305 -17 262 2 q 219 21 184 61 z"},"%":{"x_min":0,"x_max":963,"ha":963,"o":"m 662 175 q 662 109 681 77 q 700 46 741 46 q 782 46 801 77 q 820 107 820 175 q 820 242 801 273 q 782 304 741 304 q 701 304 681 272 q 662 241 662 175 z m 550 175 q 550 261 603 314 q 656 368 741 368 q 826 368 879 314 q 933 260 933 175 q 933 90 880 36 q 826 -17 741 -17 q 656 -17 603 36 q 550 89 550 175 z m 709 626 l 334 -17 l 253 -17 l 629 626 z m 143 433 q 143 367 162 336 q 181 305 222 305 q 264 305 283 336 q 302 366 302 433 q 302 500 282 531 q 263 563 222 563 q 182 563 163 531 q 143 499 143 433 z m 31 433 q 31 519 84 572 q 137 626 222 626 q 307 626 360 572 q 414 519 414 433 q 414 348 361 294 q 307 241 222 241 q 137 241 84 294 q 31 348 31 433 z"},"m":{"x_min":0,"x_max":931,"ha":931,"o":"m 525 391 q 570 442 609 464 q 648 487 691 487 q 723 487 750 477 q 778 467 795 449 q 813 430 821 403 q 828 376 828 313 l 828 127 q 828 88 839 78 q 851 67 885 67 l 913 67 l 913 0 l 640 0 l 640 67 l 651 67 q 686 67 697 78 q 709 89 709 127 l 709 313 q 709 371 694 390 q 679 410 641 410 q 595 410 562 373 q 530 335 530 279 l 530 127 q 530 88 541 78 q 553 67 587 67 l 599 67 l 599 0 l 342 0 l 342 67 l 353 67 q 388 67 399 78 q 411 89 411 127 l 411 313 q 411 371 396 390 q 381 410 343 410 q 297 410 264 373 q 232 335 232 279 l 232 127 q 232 88 243 78 q 255 67 289 67 l 301 67 l 301 0 l 23 0 l 23 67 l 56 67 q 90 67 102 78 q 113 88 113 127 l 113 345 q 113 384 102 394 q 90 405 56 405 l 23 405 l 23 472 l 232 472 l 232 392 q 271 442 309 464 q 348 487 395 487 q 443 487 476 463 q 508 439 525 391 z"},"#":{"x_min":0,"x_max":769,"ha":769,"o":"m 477 419 l 343 419 l 297 290 l 431 290 z m 449 713 l 373 500 l 504 500 l 580 713 l 669 713 l 593 500 l 735 500 l 706 419 l 564 419 l 519 291 l 669 291 l 640 209 l 490 209 l 415 -3 l 325 -3 l 401 209 l 270 209 l 195 -3 l 105 -3 l 181 209 l 34 209 l 63 291 l 210 291 l 255 419 l 99 419 l 129 500 l 284 500 l 360 713 z"},",":{"x_min":0,"x_max":312,"ha":312,"o":"m 78 -144 l 78 -100 q 125 -88 148 -59 q 172 -31 173 14 q 161 6 150 2 q 139 -2 129 -2 q 103 -2 86 16 q 70 33 70 61 q 70 93 90 112 q 111 131 145 131 q 187 131 213 102 q 239 73 239 26 q 239 -41 196 -87 q 153 -132 78 -144 z"},"n":{"x_min":0,"x_max":655,"ha":655,"o":"m 23 0 l 23 67 l 56 67 q 90 67 102 78 q 113 88 113 127 l 113 345 q 113 384 102 394 q 90 405 56 405 l 23 405 l 23 472 l 234 472 l 234 389 q 273 438 314 462 q 355 487 398 487 q 479 487 515 447 q 551 407 551 313 l 551 127 q 551 88 562 78 q 574 67 608 67 l 637 67 l 637 0 l 353 0 l 353 67 l 373 67 q 407 67 419 78 q 430 88 430 127 l 430 313 q 430 365 413 388 q 396 410 356 410 q 299 410 267 367 q 234 324 234 249 l 234 127 q 234 88 245 78 q 257 67 291 67 l 311 67 l 311 0 z"},"h":{"x_min":0,"x_max":648,"ha":648,"o":"m 107 544 q 107 582 95 593 q 83 604 49 604 l 23 604 l 23 671 l 227 671 l 227 389 q 266 438 307 462 q 349 487 392 487 q 473 487 509 447 q 544 407 544 313 l 544 127 q 544 89 556 78 q 567 67 602 67 l 630 67 l 630 0 l 346 0 l 346 67 l 366 67 q 401 67 412 78 q 424 89 424 127 l 424 313 q 424 365 406 388 q 389 410 350 410 q 292 410 260 366 q 227 323 227 245 l 227 127 q 227 89 239 78 q 250 67 285 67 l 305 67 l 305 0 l 23 0 l 23 67 l 49 67 q 83 67 95 78 q 107 89 107 127 z"},"z":{"x_min":0,"x_max":504,"ha":504,"o":"m 20 0 l 20 73 l 324 405 l 219 405 q 156 405 134 376 q 112 348 111 263 l 40 263 l 40 472 l 462 472 l 462 397 l 163 67 l 250 67 q 338 67 363 96 q 388 125 392 225 l 462 225 l 462 0 z"},"B":{"x_min":0,"x_max":730,"ha":730,"o":"m 269 386 l 365 386 q 447 386 482 410 q 517 435 517 490 q 517 546 485 570 q 453 594 376 594 l 269 594 z m 269 75 l 380 75 q 466 75 502 103 q 539 130 539 193 q 539 256 501 282 q 463 309 371 309 l 269 309 z m 23 0 l 23 76 l 62 76 q 106 76 117 87 q 128 97 128 138 l 128 533 q 128 574 117 585 q 106 595 62 595 l 23 595 l 23 671 l 410 671 q 536 671 597 630 q 658 589 658 504 q 658 445 625 409 q 592 374 523 356 q 604 339 645 296 q 685 253 685 182 q 685 84 618 42 q 551 0 391 0 z"},"K":{"x_min":0,"x_max":777,"ha":777,"o":"m 266 230 l 266 138 q 266 97 277 87 q 288 76 332 76 l 359 76 l 359 0 l 23 0 l 23 76 l 62 76 q 106 76 117 87 q 128 97 128 138 l 128 533 q 128 574 117 585 q 106 595 62 595 l 23 595 l 23 671 l 364 671 l 364 595 l 332 595 q 288 595 277 585 q 266 574 266 533 l 266 344 l 492 556 q 501 565 505 571 q 509 577 509 582 q 509 589 499 592 q 490 595 469 595 l 425 595 l 425 671 l 763 671 l 763 595 l 740 595 q 701 595 662 575 q 624 556 570 506 l 472 416 l 676 127 q 698 96 716 86 q 734 76 772 76 l 806 76 l 806 0 l 433 0 l 433 76 l 487 76 q 513 76 521 80 q 529 84 529 94 q 529 101 526 108 q 523 115 514 128 l 376 326 z"},"R":{"x_min":0,"x_max":773,"ha":773,"o":"m 269 393 l 387 393 q 458 393 492 417 q 525 441 525 494 q 525 548 493 572 q 461 595 384 595 l 269 595 z m 269 138 q 269 98 280 87 q 291 76 336 76 l 383 76 l 383 0 l 23 0 l 23 76 l 62 76 q 106 76 117 87 q 128 97 128 138 l 128 533 q 128 574 117 585 q 106 595 62 595 l 23 595 l 23 671 l 424 671 q 550 671 611 631 q 672 592 672 510 q 672 438 623 394 q 575 351 480 340 q 552 329 580 299 q 609 269 614 195 l 618 135 q 621 100 627 89 q 633 78 648 78 q 677 78 679 188 q 679 190 679 191 l 743 191 q 744 185 744 177 q 744 170 744 157 q 744 65 711 22 q 677 -20 605 -20 q 545 -20 512 13 q 478 45 476 104 l 473 182 q 470 261 438 289 q 406 317 317 317 l 269 317 z"},"T":{"x_min":0,"x_max":678,"ha":678,"o":"m 268 597 l 255 597 q 174 597 138 549 q 101 501 100 393 l 23 393 l 23 671 l 655 671 l 655 393 l 578 393 q 577 500 541 548 q 504 597 424 597 l 409 597 l 409 138 q 409 98 420 87 q 431 76 476 76 l 533 76 l 533 0 l 144 0 l 144 76 l 202 76 q 247 76 257 87 q 268 97 268 138 z"},"P":{"x_min":0,"x_max":685,"ha":685,"o":"m 269 379 l 336 379 q 428 379 466 404 q 503 428 503 487 q 503 547 467 571 q 431 595 328 595 l 269 595 z m 269 138 q 269 98 280 87 q 291 76 336 76 l 383 76 l 383 0 l 23 0 l 23 76 l 62 76 q 106 76 117 87 q 128 97 128 138 l 128 533 q 128 574 117 585 q 106 595 62 595 l 23 595 l 23 671 l 376 671 q 512 671 581 625 q 650 578 650 487 q 650 437 631 400 q 612 363 574 337 q 547 319 498 311 q 449 303 362 303 l 269 303 z"},"|":{"x_min":0,"x_max":500,"ha":500,"o":"m 294 764 l 294 -236 l 207 -236 l 207 764 z"},"t":{"x_min":0,"x_max":405,"ha":405,"o":"m 95 148 l 95 403 l 17 403 l 17 468 q 84 479 116 523 q 148 566 154 658 l 218 658 l 218 472 l 348 472 l 348 403 l 216 403 l 216 134 q 216 99 224 87 q 231 75 252 75 q 277 75 287 99 q 297 123 297 197 l 297 223 l 362 223 q 362 215 363 206 q 363 197 363 180 q 363 76 329 30 q 295 -17 219 -17 q 154 -17 125 22 q 95 62 95 148 z"},"M":{"x_min":0,"x_max":974,"ha":974,"o":"m 605 0 l 605 76 l 650 76 q 694 76 705 87 q 716 97 716 138 l 716 572 l 500 0 l 434 0 l 231 583 l 231 138 q 231 97 242 87 q 252 76 297 76 l 337 76 l 337 0 l 23 0 l 23 76 l 59 76 q 104 76 114 87 q 125 97 125 138 l 125 533 q 125 574 114 585 q 104 595 59 595 l 23 595 l 23 671 l 336 671 l 485 236 l 651 671 l 950 671 l 950 595 l 912 595 q 867 595 856 584 q 845 574 845 533 l 845 138 q 845 98 856 87 q 867 76 912 76 l 950 76 l 950 0 z"},"g":{"x_min":0,"x_max":663,"ha":663,"o":"m 285 -25 q 192 -25 158 -40 q 123 -54 123 -90 q 123 -125 161 -141 q 200 -158 278 -158 q 362 -158 403 -140 q 444 -121 444 -84 q 444 -51 412 -38 q 380 -25 285 -25 z m 201 315 q 201 253 222 225 q 243 197 289 197 q 335 197 356 224 q 378 252 378 311 q 378 373 356 402 q 335 431 289 431 q 244 431 222 403 q 201 375 201 315 z m 137 176 q 102 206 85 239 q 69 272 69 311 q 69 393 130 441 q 192 490 296 490 q 342 490 382 479 q 423 467 457 444 q 479 467 503 479 q 526 490 554 490 q 606 490 635 463 q 665 437 665 390 q 665 359 646 339 q 628 319 599 319 q 571 319 552 336 q 534 353 534 379 q 534 400 546 414 q 559 428 582 434 q 573 441 565 445 q 557 448 548 448 q 531 448 514 438 q 498 427 483 406 q 497 381 503 357 q 510 333 510 306 q 510 227 450 180 q 391 133 290 133 q 264 133 236 137 q 208 142 180 151 q 168 143 161 134 q 155 125 155 117 q 155 98 169 90 q 184 82 220 82 l 357 82 q 471 82 524 49 q 576 16 576 -55 q 576 -133 503 -174 q 430 -215 293 -215 q 168 -215 102 -185 q 36 -154 36 -98 q 36 -67 59 -47 q 82 -26 129 -13 q 90 -3 69 20 q 48 43 48 77 q 48 111 70 135 q 93 160 137 176 z"},"j":{"x_min":0,"x_max":319,"ha":319,"o":"m 91 605 q 91 636 112 658 q 134 679 165 679 q 197 679 219 658 q 240 636 240 605 q 240 574 218 552 q 196 530 165 530 q 134 530 112 552 q 91 574 91 605 z m 113 345 q 113 384 102 394 q 90 405 56 405 l 16 405 l 16 472 l 235 472 l 235 -26 q 235 -125 196 -170 q 157 -215 71 -215 q 10 -215 -28 -186 q -66 -157 -66 -112 q -66 -82 -46 -62 q -26 -43 5 -43 q 32 -43 48 -59 q 65 -75 65 -100 q 65 -124 52 -137 q 40 -150 12 -154 q 25 -160 36 -162 q 46 -165 54 -165 q 86 -165 99 -141 q 113 -118 113 -58 z"},"i":{"x_min":0,"x_max":352,"ha":352,"o":"m 25 0 l 25 67 l 62 67 q 96 67 108 78 q 119 88 119 127 l 119 345 q 119 384 108 394 q 96 405 62 405 l 25 405 l 25 472 l 241 472 l 241 127 q 241 89 253 78 q 264 67 299 67 l 329 67 l 329 0 z m 97 605 q 97 636 118 658 q 140 679 171 679 q 203 679 224 658 q 246 636 246 605 q 246 574 224 552 q 203 530 171 530 q 140 530 119 552 q 97 574 97 605 z"},"y":{"x_min":0,"x_max":584,"ha":584,"o":"m 256 0 l 102 344 q 87 377 70 391 q 53 405 27 405 l -3 405 l -3 472 l 287 472 l 287 405 l 252 405 q 235 405 226 399 q 218 393 218 381 q 218 375 219 370 q 221 364 223 359 l 316 141 l 398 350 q 402 360 403 367 q 405 374 405 379 q 405 394 395 399 q 386 405 361 405 l 334 405 l 334 472 l 575 472 l 575 405 l 553 405 q 529 405 511 388 q 494 371 479 334 l 368 56 q 302 -109 253 -162 q 205 -215 135 -215 q 74 -215 35 -179 q -5 -143 -5 -89 q -5 -50 18 -25 q 41 0 77 0 q 107 0 127 -19 q 146 -37 146 -66 q 146 -94 128 -110 q 111 -126 79 -126 l 73 -126 q 83 -138 95 -144 q 107 -150 123 -150 q 163 -150 194 -115 q 225 -81 256 0 z"},"@":{"x_min":0,"x_max":986,"ha":986,"o":"m 637 402 l 662 485 l 746 485 l 662 184 l 661 181 q 654 152 654 137 q 654 113 665 100 q 675 87 694 87 q 710 87 735 98 q 759 108 780 125 q 833 168 862 233 q 891 299 891 378 q 891 514 798 598 q 705 681 552 681 q 467 681 391 649 q 315 618 258 559 q 198 498 168 419 q 138 341 138 245 q 138 161 167 95 q 196 30 255 -19 q 307 -62 375 -85 q 444 -108 523 -108 q 604 -108 680 -83 q 755 -58 828 -6 l 846 -29 q 774 -83 692 -111 q 611 -138 523 -138 q 431 -138 354 -115 q 276 -93 219 -50 q 146 5 107 85 q 68 166 68 262 q 68 361 110 448 q 152 535 232 601 q 298 655 377 683 q 457 711 546 711 q 716 711 818 619 q 920 527 920 374 q 920 296 891 229 q 862 161 809 113 q 779 86 746 73 q 713 59 681 59 q 633 59 607 85 q 580 110 577 159 q 546 108 510 84 q 474 60 429 60 q 364 60 325 105 q 287 150 287 226 q 287 281 311 333 q 335 385 380 428 q 413 460 452 477 q 491 493 531 493 q 575 493 602 470 q 629 447 637 402 z m 610 377 q 610 417 592 442 q 573 466 543 466 q 512 466 486 444 q 460 422 434 372 q 406 320 392 270 q 377 220 377 179 q 377 139 395 114 q 413 90 441 90 q 471 90 497 110 q 523 130 550 175 q 577 222 594 277 q 610 333 610 377 z"},".":{"x_min":0,"x_max":312,"ha":312,"o":"m 81 57 q 81 88 103 109 q 125 131 156 131 q 188 131 209 110 q 230 88 230 57 q 230 25 209 4 q 188 -17 156 -17 q 125 -17 103 4 q 81 26 81 57 z"},"p":{"x_min":0,"x_max":627,"ha":627,"o":"m 448 237 q 448 322 420 364 q 392 406 334 406 q 281 406 250 361 q 219 316 219 237 q 219 159 250 114 q 281 69 334 69 q 392 69 420 111 q 448 152 448 237 z m 99 -88 l 99 345 q 99 383 87 394 q 76 405 41 405 l 16 405 l 16 472 l 219 472 l 219 390 q 244 439 283 463 q 322 486 380 486 q 477 486 530 420 q 584 354 584 234 q 584 115 530 49 q 477 -17 380 -17 q 322 -17 283 6 q 244 30 219 79 l 219 -88 q 219 -126 231 -137 q 242 -148 277 -148 l 322 -148 l 322 -215 l 12 -215 l 12 -148 l 41 -148 q 76 -148 87 -137 q 99 -126 99 -88 z"},"X":{"x_min":0,"x_max":791,"ha":791,"o":"m 287 153 q 272 136 264 122 q 256 108 256 100 q 256 87 266 82 q 275 76 303 76 l 350 76 l 350 0 l 1 0 l 1 76 l 34 76 q 63 76 81 85 q 99 94 126 125 l 318 343 l 160 541 q 135 573 113 584 q 92 595 61 595 l 27 595 l 27 671 l 382 671 l 382 595 l 336 595 q 322 595 314 590 q 307 585 307 575 q 307 568 311 561 q 314 554 323 544 l 411 437 l 518 549 q 525 556 530 564 q 534 572 534 577 q 534 586 523 591 q 512 595 490 595 l 451 595 l 451 671 l 766 671 l 766 595 l 730 595 q 691 595 625 522 l 624 521 l 476 359 l 646 147 q 686 97 707 87 q 728 76 766 76 l 796 76 l 796 0 l 411 0 l 411 76 l 457 76 q 481 76 493 80 q 504 84 504 94 q 504 102 501 110 q 498 118 492 125 l 383 263 z"},"*":{"x_min":0,"x_max":500,"ha":500,"o":"m 242 493 q 240 535 218 582 q 196 628 196 641 q 196 663 211 677 q 226 691 250 691 q 274 691 289 677 q 304 663 304 640 q 304 630 282 583 q 261 536 257 493 q 276 504 293 521 q 310 537 326 562 q 328 564 332 570 q 361 614 391 614 q 411 614 427 596 q 442 578 442 555 q 442 530 427 519 q 413 508 369 504 q 330 500 307 495 q 285 490 266 480 q 285 469 308 463 q 332 457 371 454 q 411 451 427 439 q 442 427 442 401 q 442 378 426 361 q 410 344 388 344 q 361 344 330 390 q 328 394 326 396 q 308 422 292 439 q 276 455 259 465 q 261 422 283 375 q 305 329 305 317 q 305 295 290 282 q 275 268 250 268 q 225 268 211 281 q 197 295 197 318 q 197 329 219 376 q 241 424 244 465 q 225 454 207 436 q 190 418 174 395 q 172 392 168 386 q 141 344 109 344 q 89 344 74 363 q 58 381 58 403 q 58 424 73 437 q 88 451 114 453 q 119 454 128 454 q 198 458 234 478 q 191 501 110 505 l 110 505 q 86 506 72 520 q 58 533 58 554 q 58 579 74 596 q 90 614 113 614 q 140 614 167 572 q 171 566 174 562 q 192 536 208 520 q 224 504 242 493 z"},"Y":{"x_min":0,"x_max":733,"ha":733,"o":"m 437 138 q 437 98 448 87 q 459 76 504 76 l 562 76 l 562 0 l 172 0 l 172 76 l 230 76 q 274 76 285 87 q 296 97 296 138 l 296 281 l 130 526 q 104 565 82 580 q 61 595 33 595 l 0 595 l 0 671 l 355 671 l 355 595 l 306 595 q 283 595 273 590 q 262 585 262 574 q 262 567 266 559 q 269 551 276 541 l 389 384 l 509 547 q 516 557 519 564 q 522 570 522 577 q 522 586 513 591 q 503 595 486 595 l 427 595 l 427 671 l 738 671 l 738 595 l 715 595 q 688 595 672 586 q 656 577 637 551 l 437 281 z"},"c":{"x_min":0,"x_max":514,"ha":514,"o":"m 404 196 l 481 196 q 476 90 423 36 q 370 -17 270 -17 q 158 -17 93 51 q 28 120 28 236 q 28 349 100 419 q 173 490 289 490 q 375 490 431 449 q 486 407 486 344 q 486 305 464 282 q 442 259 406 259 q 373 259 354 278 q 334 296 334 328 q 334 352 350 368 q 366 385 392 388 q 370 407 346 415 q 323 424 294 424 q 233 424 198 375 q 164 325 164 237 q 164 155 195 114 q 227 73 289 73 q 340 73 368 103 q 396 133 404 196 z"},"!":{"x_min":0,"x_max":312,"ha":312,"o":"m 125 191 q 116 314 100 452 q 84 590 84 608 q 84 651 102 671 q 120 691 158 691 q 197 691 214 671 q 232 651 232 608 q 232 591 215 453 q 197 315 187 191 z m 81 57 q 81 88 103 109 q 125 131 156 131 q 188 131 209 110 q 230 88 230 57 q 230 25 209 4 q 188 -17 156 -17 q 125 -17 103 4 q 81 26 81 57 z"},"/":{"x_min":0,"x_max":296,"ha":296,"o":"m 50 -93 l -24 -93 l 222 691 l 296 691 z"},"[":{"x_min":0,"x_max":387,"ha":387,"o":"m 92 -174 l 92 671 l 342 671 l 342 604 l 222 604 l 222 -106 l 342 -106 l 342 -174 z"},"6":{"x_min":0,"x_max":625,"ha":625,"o":"m 211 179 q 211 119 239 87 q 268 55 320 55 q 370 55 398 87 q 426 119 426 175 q 426 238 398 271 q 371 303 316 303 q 266 303 239 271 q 211 238 211 179 z m 438 540 q 419 553 400 559 q 381 565 362 565 q 286 565 249 510 q 212 456 207 336 q 244 363 281 376 q 319 389 361 389 q 455 389 516 332 q 577 275 577 188 q 577 95 507 38 q 437 -19 322 -19 q 194 -19 124 61 q 54 141 54 288 q 54 444 132 535 q 210 626 345 626 q 434 626 491 588 q 548 550 548 494 q 548 460 525 438 q 502 416 466 416 q 433 416 412 434 q 391 453 391 482 q 391 503 403 518 q 415 532 438 540 z"},"r":{"x_min":0,"x_max":497,"ha":497,"o":"m 234 127 q 234 88 245 78 q 257 67 291 67 l 341 67 l 341 0 l 23 0 l 23 67 l 56 67 q 90 67 102 78 q 113 88 113 127 l 113 345 q 113 384 102 394 q 90 405 56 405 l 23 405 l 23 472 l 234 472 l 234 401 q 257 443 289 464 q 320 485 359 485 q 413 485 446 455 q 480 425 480 377 q 480 339 458 316 q 435 292 399 292 q 368 292 349 309 q 330 327 330 354 q 330 379 346 396 q 361 414 391 422 q 380 427 369 429 q 359 432 350 432 q 300 432 267 382 q 234 332 234 254 z"},"2":{"x_min":0,"x_max":625,"ha":625,"o":"m 45 -4 q 44 1 44 6 q 44 12 44 23 q 44 102 78 158 q 112 214 186 256 q 217 274 265 297 q 313 319 328 327 q 359 344 376 374 q 394 404 394 441 q 394 491 355 524 q 317 556 257 556 q 213 556 181 536 q 148 517 131 479 q 139 481 147 483 q 155 484 165 484 q 196 484 215 466 q 234 448 234 418 q 234 383 212 361 q 189 339 154 339 q 112 339 85 368 q 58 398 58 444 q 58 519 126 573 q 193 626 292 626 q 407 626 476 572 q 545 518 545 428 q 545 353 502 311 q 460 269 351 241 l 348 240 q 171 196 130 111 q 150 124 171 131 q 192 137 217 137 q 257 137 326 121 q 395 105 421 105 q 462 105 481 131 q 500 156 504 218 l 561 218 l 561 204 q 561 99 520 41 q 479 -17 406 -17 q 379 -17 344 -7 q 310 2 268 22 q 259 26 243 35 q 188 64 159 64 q 134 64 120 48 q 107 31 103 -4 z"},"{":{"x_min":0,"x_max":500,"ha":500,"o":"m 415 712 q 353 711 329 686 q 306 660 306 583 l 306 516 q 306 406 279 366 q 251 326 177 310 q 251 294 279 254 q 306 214 306 104 l 306 37 q 306 -40 329 -65 q 352 -90 415 -91 l 415 -119 l 410 -119 q 302 -119 261 -83 q 220 -47 220 50 l 220 148 q 220 227 192 257 q 164 288 87 294 l 87 327 q 165 334 192 364 q 220 394 220 473 l 220 571 q 220 668 261 704 q 303 740 415 740 z"},"9":{"x_min":0,"x_max":625,"ha":625,"o":"m 192 65 q 210 53 229 48 q 248 42 269 42 q 343 42 379 99 q 415 156 416 275 q 378 246 339 232 q 300 218 256 218 q 165 218 104 274 q 43 330 43 412 q 43 509 113 567 q 183 626 299 626 q 427 626 498 544 q 568 462 568 314 q 568 159 490 70 q 412 -19 275 -19 q 190 -19 135 18 q 80 55 80 110 q 80 144 104 166 q 127 187 164 187 q 196 187 217 169 q 237 150 237 122 q 237 102 226 87 q 215 73 192 65 z m 408 424 q 408 486 380 519 q 352 552 300 552 q 248 552 220 520 q 193 489 193 429 q 193 368 222 336 q 251 304 307 304 q 354 304 381 336 q 408 369 408 424 z"}," ":{"x_min":0,"x_max":312,"ha":312,"o":""},"I":{"x_min":0,"x_max":412,"ha":412,"o":"m 25 0 l 25 76 l 68 76 q 112 76 123 87 q 134 97 134 138 l 134 533 q 134 574 123 585 q 112 595 68 595 l 25 595 l 25 671 l 387 671 l 387 595 l 344 595 q 299 595 289 585 q 278 574 278 533 l 278 138 q 278 97 289 87 q 299 76 344 76 l 387 76 l 387 0 z"},"H":{"x_min":0,"x_max":829,"ha":829,"o":"m 23 0 l 23 76 l 62 76 q 106 76 117 87 q 128 97 128 138 l 128 533 q 128 574 117 585 q 106 595 62 595 l 23 595 l 23 671 l 383 671 l 383 595 l 336 595 q 291 595 280 584 q 269 574 269 533 l 269 385 l 559 385 l 559 533 q 559 574 548 585 q 538 595 493 595 l 446 595 l 446 671 l 806 671 l 806 595 l 767 595 q 722 595 711 584 q 700 574 700 533 l 700 138 q 700 98 711 87 q 722 76 767 76 l 806 76 l 806 0 l 446 0 l 446 76 l 493 76 q 538 76 548 87 q 559 97 559 138 l 559 304 l 269 304 l 269 138 q 269 98 280 87 q 291 76 336 76 l 383 76 l 383 0 z"},"4":{"x_min":0,"x_max":625,"ha":625,"o":"m 340 255 l 343 474 l 145 255 z m 229 0 l 229 72 l 265 72 q 315 72 327 81 q 340 90 340 126 l 340 169 l 36 169 l 36 245 l 369 615 l 466 615 l 466 255 l 583 255 l 583 169 l 466 169 l 466 126 q 466 94 479 83 q 492 72 527 72 l 583 72 l 583 0 z"},"~":{"x_min":0,"x_max":833,"ha":833,"o":"m 747 293 q 697 258 651 241 q 604 224 561 224 q 540 224 516 228 q 492 232 468 241 q 456 245 431 254 q 327 290 275 290 q 235 290 190 271 q 145 253 87 212 l 87 303 q 139 338 186 356 q 232 373 276 373 q 306 373 337 367 q 368 361 419 344 q 426 342 440 336 q 520 308 562 308 q 604 308 648 326 q 693 344 747 383 z"},"D":{"x_min":0,"x_max":811,"ha":811,"o":"m 23 0 l 23 76 l 62 76 q 106 76 117 87 q 128 97 128 138 l 128 533 q 128 574 117 585 q 106 595 62 595 l 23 595 l 23 671 l 404 671 q 580 671 670 586 q 760 501 760 336 q 760 171 669 85 q 579 0 404 0 z m 269 76 l 357 76 q 436 76 475 88 q 514 101 542 130 q 570 159 587 214 q 603 269 603 336 q 603 403 587 458 q 570 512 542 541 q 514 570 475 583 q 436 595 357 595 l 269 595 z"},"^":{"x_min":0,"x_max":1000,"ha":1000,"o":"m 552 714 l 797 438 l 746 438 l 499 632 l 252 438 l 201 438 l 447 714 z"},"0":{"x_min":0,"x_max":625,"ha":625,"o":"m 186 304 q 186 178 216 120 q 247 61 312 61 q 377 61 408 120 q 439 179 439 304 q 439 430 408 489 q 377 548 312 548 q 247 548 217 489 q 186 429 186 304 z m 31 304 q 31 447 109 537 q 188 626 312 626 q 437 626 515 536 q 594 447 594 304 q 594 161 515 72 q 437 -17 312 -17 q 188 -17 109 72 q 31 161 31 304 z"},"F":{"x_min":0,"x_max":694,"ha":694,"o":"m 23 0 l 23 76 l 62 76 q 106 76 117 87 q 128 97 128 138 l 128 533 q 128 574 117 585 q 106 595 62 595 l 23 595 l 23 671 l 647 671 l 647 393 l 570 393 q 570 445 563 482 q 556 519 542 545 q 527 572 494 583 q 461 595 394 595 l 269 595 l 269 389 l 286 389 q 349 389 369 411 q 388 433 393 511 l 469 511 l 469 175 l 393 175 q 389 262 369 287 q 349 312 287 312 l 269 312 l 269 138 q 269 98 280 87 q 291 76 336 76 l 383 76 l 383 0 z"},"`":{"x_min":0,"x_max":500,"ha":500,"o":"m 354 544 l 298 544 l 139 623 q 112 637 100 651 q 88 665 88 682 q 88 704 104 719 q 119 735 142 735 q 159 735 177 724 q 194 714 218 688 z"},"k":{"x_min":0,"x_max":640,"ha":640,"o":"m 227 243 l 379 367 q 389 375 393 381 q 397 386 397 391 q 397 398 389 402 q 382 405 361 405 l 307 405 l 307 472 l 606 472 l 606 405 l 586 405 q 544 405 500 367 l 499 367 l 406 291 l 524 124 q 545 95 567 81 q 590 67 617 67 l 640 67 l 640 0 l 350 0 l 350 67 l 384 67 q 397 67 405 71 q 413 76 413 82 q 413 86 410 94 q 406 101 401 109 l 322 225 l 227 150 l 227 127 q 227 89 239 78 q 250 67 285 67 l 297 67 l 297 0 l 23 0 l 23 67 l 49 67 q 83 67 95 78 q 107 89 107 127 l 107 544 q 107 582 95 593 q 83 604 49 604 l 23 604 l 23 671 l 227 671 z"},"u":{"x_min":0,"x_max":648,"ha":648,"o":"m 104 159 l 104 345 q 104 383 92 394 q 81 405 46 405 l 23 405 l 23 472 l 224 472 l 224 159 q 224 107 241 84 q 259 62 298 62 q 354 62 388 105 q 421 148 421 223 l 421 345 q 421 383 409 394 q 398 405 363 405 l 317 405 l 317 472 l 541 472 l 541 127 q 541 89 553 78 q 564 67 599 67 l 625 67 l 625 0 l 421 0 l 421 83 q 382 35 341 10 q 299 -15 256 -15 q 175 -15 139 25 q 104 65 104 159 z"},"]":{"x_min":0,"x_max":387,"ha":387,"o":"m 294 -174 l 44 -174 l 44 -106 l 165 -106 l 165 604 l 44 604 l 44 671 l 294 671 z"},"U":{"x_min":0,"x_max":764,"ha":764,"o":"m 119 533 q 119 574 108 585 q 98 595 53 595 l 21 595 l 21 671 l 370 671 l 370 595 l 327 595 q 282 595 271 584 q 260 574 260 533 l 260 212 q 260 142 292 110 q 325 79 398 79 q 467 79 502 113 q 537 146 537 212 l 537 533 q 537 574 526 585 q 516 595 471 595 l 432 595 l 432 671 l 743 671 l 743 595 l 712 595 q 667 595 657 585 q 646 574 646 533 l 646 212 q 646 99 578 39 q 510 -20 381 -20 q 252 -20 186 39 q 119 98 119 212 z"},"o":{"x_min":0,"x_max":589,"ha":589,"o":"m 164 236 q 164 145 196 99 q 229 54 294 54 q 359 54 392 100 q 425 145 425 236 q 425 328 392 373 q 359 419 294 419 q 229 419 197 373 q 164 328 164 236 z m 28 236 q 28 351 101 421 q 173 490 294 490 q 415 490 488 420 q 561 351 561 236 q 561 122 488 52 q 415 -17 294 -17 q 173 -17 101 52 q 28 122 28 236 z"},"N":{"x_min":0,"x_max":822,"ha":822,"o":"m 705 0 l 564 0 l 231 547 l 231 138 q 231 97 242 87 q 252 76 297 76 l 343 76 l 343 0 l 12 0 l 12 76 l 59 76 q 104 76 114 87 q 125 97 125 138 l 125 533 q 125 574 114 585 q 104 595 59 595 l 16 595 l 16 671 l 303 671 l 600 184 l 600 533 q 600 574 589 585 q 579 595 534 595 l 487 595 l 487 671 l 804 671 l 804 595 l 772 595 q 727 595 716 584 q 705 574 705 533 z"},"+":{"x_min":0,"x_max":833,"ha":833,"o":"m 458 596 l 458 339 l 709 339 l 709 258 l 458 258 l 458 0 l 375 0 l 375 258 l 124 258 l 124 339 l 375 339 l 375 596 z"},"G":{"x_min":0,"x_max":789,"ha":789,"o":"m 611 -4 l 575 52 q 529 15 479 -2 q 430 -20 371 -20 q 302 -20 243 4 q 184 29 137 76 q 87 126 62 192 q 36 258 36 336 q 36 414 63 480 q 89 547 140 597 q 188 644 246 667 q 305 691 374 691 q 432 691 479 673 q 526 655 568 617 l 596 675 l 667 675 l 667 413 l 590 413 q 570 506 517 557 q 464 609 389 609 q 300 609 247 535 q 194 461 194 336 q 194 208 247 139 q 300 69 396 69 q 465 69 505 101 q 545 134 545 190 l 545 228 q 545 263 534 273 q 523 283 469 283 l 427 283 l 427 359 l 782 359 l 782 283 l 739 283 q 704 283 694 272 q 684 261 684 220 l 684 -4 z"},"q":{"x_min":0,"x_max":632,"ha":632,"o":"m 528 -88 q 528 -126 540 -137 q 551 -148 586 -148 l 617 -148 l 617 -215 l 305 -215 l 305 -148 l 350 -148 q 385 -148 396 -137 q 408 -126 408 -88 l 408 79 q 383 30 344 6 q 305 -17 247 -17 q 150 -17 97 49 q 43 115 43 234 q 43 354 97 420 q 150 486 247 486 q 305 486 344 463 q 383 439 408 390 l 408 472 l 611 472 l 611 405 l 586 405 q 551 405 540 394 q 528 383 528 345 z m 179 237 q 179 152 208 111 q 236 69 294 69 q 347 69 378 114 q 408 158 408 237 q 408 316 377 361 q 347 406 294 406 q 236 406 208 364 q 179 322 179 237 z"},"d":{"x_min":0,"x_max":623,"ha":623,"o":"m 170 235 q 170 150 198 108 q 227 66 284 66 q 337 66 367 111 q 398 156 398 235 q 398 314 367 358 q 337 403 284 403 q 226 403 198 361 q 170 320 170 235 z m 398 544 q 398 583 386 593 q 375 604 341 604 l 299 604 l 299 671 l 519 671 l 519 127 q 519 88 531 78 q 542 67 576 67 l 605 67 l 605 0 l 398 0 l 398 82 q 374 33 334 9 q 295 -14 237 -14 q 141 -14 88 52 q 34 118 34 238 q 34 357 88 424 q 141 490 237 490 q 294 490 334 467 q 373 443 398 393 z"},"1":{"x_min":0,"x_max":625,"ha":625,"o":"m 141 0 l 141 72 l 186 72 q 237 72 251 83 q 264 94 264 131 l 264 451 l 141 451 l 141 522 q 213 525 253 547 q 293 568 315 615 l 396 615 l 396 129 q 396 92 407 82 q 418 72 466 72 l 517 72 l 517 0 z"},"5":{"x_min":0,"x_max":625,"ha":625,"o":"m 137 94 q 164 73 196 62 q 228 52 264 52 q 335 52 375 92 q 415 132 415 204 q 415 278 377 320 q 338 361 270 361 q 232 361 201 345 q 170 330 143 297 l 75 300 l 106 624 q 155 608 207 600 q 258 592 315 592 q 374 592 427 600 q 481 607 531 623 q 511 550 449 515 q 387 480 280 480 q 260 480 235 482 q 209 484 170 490 l 162 398 q 201 416 240 425 q 278 434 316 434 q 423 434 493 373 q 562 312 562 218 q 562 109 492 46 q 422 -17 300 -17 q 188 -17 118 30 q 48 77 48 151 q 48 189 74 215 q 100 241 138 241 q 175 241 198 221 q 221 201 221 169 q 221 134 198 114 q 176 94 137 94 z"}}}
